<?xml version="1.0" standalone="no"?>
<!DOCTYPE svg PUBLIC "-//W3C//DTD SVG 20010904//EN"
 "http://www.w3.org/TR/2001/REC-SVG-20010904/DTD/svg10.dtd">
<svg version="1.0" xmlns="http://www.w3.org/2000/svg"
 width="1024.000000pt" height="1024.000000pt" viewBox="0 0 1024.000000 1024.000000"
 preserveAspectRatio="xMidYMid meet">

<g transform="translate(0.000000,1024.000000) scale(0.100000,-0.100000)"
fill="#000000" stroke="none">
<path d="M4620 10024 c-766 -45 -1360 -169 -1755 -367 -196 -97 -342 -223
-401 -343 -26 -53 -29 -69 -29 -155 0 -88 2 -100 34 -162 18 -36 31 -73 28
-81 -3 -8 -19 -17 -35 -21 -54 -11 -178 -92 -232 -152 -51 -55 -120 -179 -120
-214 0 -9 -6 -19 -13 -22 -19 -7 -63 -105 -77 -170 -6 -32 -11 -99 -10 -150 3
-91 2 -93 -44 -188 -83 -174 -85 -309 -5 -468 48 -96 129 -194 224 -272 57
-47 76 -69 80 -93 3 -17 21 -166 40 -331 19 -165 59 -512 90 -772 30 -259 55
-480 55 -491 0 -12 -16 -26 -45 -41 -78 -39 -87 -90 -60 -322 8 -70 19 -169
25 -220 32 -277 93 -822 115 -1014 13 -121 31 -278 40 -350 8 -71 33 -290 55
-485 58 -515 51 -483 126 -560 l54 -56 30 -244 c17 -135 41 -337 55 -450 14
-113 47 -389 75 -615 l50 -410 33 -28 c40 -35 183 -125 263 -165 289 -145 734
-264 1189 -317 346 -40 839 -45 1160 -11 654 70 1158 245 1403 487 87 85 109
122 116 194 3 33 17 146 30 250 14 105 45 350 70 545 25 195 56 437 69 536
l23 182 52 56 c28 31 64 85 81 119 28 59 36 113 195 1312 129 972 164 1258
157 1288 -10 41 -23 61 -60 93 l-25 21 17 124 c22 160 182 1343 199 1472 7 54
15 101 18 105 3 4 41 34 85 66 99 74 178 154 232 234 62 93 85 162 91 268 5
109 -7 159 -78 311 -37 77 -50 118 -50 150 0 86 -59 256 -94 269 -8 3 -17 25
-20 49 -19 126 -131 257 -296 347 l-32 18 5 77 c3 43 12 107 20 142 31 127
-15 253 -138 377 -312 314 -1062 544 -2050 630 -171 14 -861 27 -1015 18z
m1020 -119 c970 -88 1680 -303 1971 -595 90 -91 122 -160 117 -249 -5 -85 -32
-142 -104 -214 -138 -139 -397 -264 -749 -361 -131 -36 -434 -99 -535 -111
-88 -10 -119 -23 -127 -52 -9 -40 28 -66 81 -58 372 56 657 125 911 220 184
69 373 176 450 254 21 23 44 41 50 41 26 0 89 -284 83 -370 -10 -144 -149
-281 -410 -405 -341 -162 -846 -272 -1498 -327 -208 -17 -992 -17 -1200 0
-916 77 -1599 252 -1987 508 -104 69 -194 159 -228 227 l-25 53 50 99 c47 93
130 325 130 365 0 9 -9 29 -20 43 -40 51 -70 130 -70 187 0 269 476 529 1215
665 240 44 520 76 885 99 143 9 846 -4 1010 -19z m-3194 -1152 c-23 -64 -56
-132 -66 -138 -6 -4 -20 -25 -31 -47 -56 -110 49 -297 248 -440 372 -268 1078
-462 1978 -544 241 -22 942 -30 1187 -15 981 63 1702 269 1997 569 86 88 124
168 128 277 3 70 0 88 -26 150 -16 39 -27 72 -25 74 9 10 106 -76 137 -121 47
-71 60 -116 55 -202 -5 -101 -46 -181 -149 -290 -173 -183 -453 -328 -795
-410 -115 -28 -147 -48 -137 -86 10 -39 37 -43 141 -19 388 87 754 287 918
500 24 32 58 83 74 114 l29 55 7 -36 c9 -51 -2 -142 -26 -207 -103 -275 -479
-536 -947 -657 -63 -17 -123 -30 -133 -30 -26 0 -70 -39 -70 -62 0 -34 29 -58
69 -58 91 0 386 92 556 174 287 137 490 308 596 501 l36 66 23 -53 c33 -78 39
-204 12 -281 -84 -236 -414 -460 -923 -625 -1184 -384 -3060 -365 -4275 44
-457 154 -796 359 -934 567 -76 114 -99 251 -56 347 l15 35 12 -35 c7 -19 35
-79 61 -133 65 -129 106 -155 150 -96 l20 26 -61 124 c-68 139 -111 286 -111
383 l0 61 21 -40 c76 -144 207 -251 251 -207 25 25 10 58 -64 132 -47 48 -85
97 -104 135 -26 55 -29 69 -29 165 0 96 3 110 28 158 37 71 90 127 161 174 33
21 60 38 62 38 2 0 -3 -17 -10 -37z m29 -1688 c481 -266 1226 -448 2160 -527
205 -18 1067 -17 1275 0 327 28 750 86 920 126 30 8 91 21 135 31 100 21 414
110 463 131 20 8 80 31 132 51 52 19 139 58 194 84 l98 49 -5 -32 c-3 -18 -18
-125 -32 -238 -15 -113 -35 -270 -46 -350 -12 -80 -25 -183 -30 -230 -5 -47
-18 -148 -29 -225 -11 -77 -28 -201 -39 -275 -10 -74 -24 -182 -31 -240 -7
-58 -13 -110 -15 -116 -5 -17 -158 -88 -265 -123 -340 -110 -797 -187 -1300
-216 -1231 -74 -2583 91 -3417 414 l-83 32 0 44 c0 24 -4 77 -10 117 -5 40
-21 170 -35 288 -13 118 -51 448 -85 733 -65 558 -61 527 -57 527 2 0 48 -25
102 -55z m333 -1861 c486 -161 1109 -277 1792 -334 565 -47 1229 -45 1735 6
576 57 1030 166 1312 313 l75 39 -6 -46 c-3 -26 -20 -148 -36 -272 -32 -238
-152 -1138 -220 -1650 -72 -537 -68 -518 -106 -577 -92 -145 -239 -237 -534
-334 -258 -85 -606 -148 -1020 -185 -242 -22 -942 -25 -1175 -6 -927 79 -1577
257 -1853 508 l-43 39 -29 260 c-17 143 -39 339 -50 435 -11 96 -33 297 -50
445 -17 149 -49 428 -71 620 -47 417 -99 875 -99 880 0 1 42 -15 93 -37 50
-23 179 -69 285 -104z m223 -2825 c534 -234 1391 -362 2304 -346 779 14 1400
125 1788 318 l98 49 -5 -28 c-3 -15 -22 -155 -41 -312 -20 -157 -60 -476 -90
-708 l-55 -424 -42 -51 c-206 -245 -748 -435 -1438 -502 -172 -17 -675 -20
-871 -5 -524 41 -998 152 -1338 316 -125 60 -281 158 -281 177 0 7 -11 100
-24 207 -14 107 -36 290 -50 405 -14 116 -44 356 -65 535 -22 179 -43 353 -47
388 l-7 63 35 -21 c19 -11 77 -39 129 -61z"/>
<path d="M5573 9660 c-26 -11 -38 -43 -23 -69 12 -24 35 -28 205 -36 502 -24
978 -155 1152 -318 91 -86 95 -157 13 -237 -89 -87 -292 -173 -520 -220 -139
-28 -150 -33 -150 -68 0 -60 29 -64 193 -26 335 76 557 197 617 335 64 149
-27 292 -260 409 -233 117 -640 207 -1015 225 -66 3 -136 7 -155 10 -19 2 -45
0 -57 -5z"/>
<path d="M4015 9613 c-478 -113 -728 -261 -728 -433 0 -256 560 -453 1508
-530 185 -15 713 -29 820 -21 86 6 90 7 99 33 8 22 6 32 -9 48 -17 19 -29 20
-289 20 -790 0 -1490 105 -1843 276 -189 91 -229 176 -126 271 90 84 304 170
598 238 190 44 184 42 191 72 8 29 -20 63 -50 62 -12 0 -88 -16 -171 -36z"/>
<path d="M2926 9101 c-27 -29 -42 -122 -28 -169 26 -86 74 -118 289 -188 138
-46 181 -52 201 -32 13 13 16 47 6 72 -6 15 -92 88 -247 210 -34 27 -84 66
-111 87 -54 43 -84 49 -110 20z"/>
<path d="M2892 8738 c-7 -7 -12 -24 -12 -39 0 -22 11 -34 63 -67 350 -228
1358 -402 2327 -402 261 0 552 15 581 30 25 14 30 47 10 71 -17 21 -18 21
-247 9 -811 -45 -1877 79 -2410 279 -104 40 -227 102 -239 121 -9 14 -59 12
-73 -2z"/>
<path d="M2710 7810 c-40 -40 -19 -70 87 -123 332 -166 1057 -307 1958 -379
220 -18 1091 -18 1240 0 277 33 449 71 466 104 15 28 3 67 -24 73 -12 3 -67
-6 -121 -20 -230 -59 -536 -80 -1046 -72 -1002 16 -2058 187 -2447 397 -41 22
-79 40 -84 40 -5 0 -18 -9 -29 -20z"/>
</g>
</svg>
